<svg width="64" height="64" viewBox="0 0 64 64" xmlns="http://www.w3.org/2000/svg">
  <defs>
    <linearGradient id="questGradient" x1="0%" y1="0%" x2="100%" y2="100%">
      <stop offset="0%" style="stop-color:#8B5CF6"/>
      <stop offset="30%" style="stop-color:#EC4899"/>
      <stop offset="70%" style="stop-color:#F59E0B"/>
      <stop offset="100%" style="stop-color:#EF4444"/>
    </linearGradient>
    <linearGradient id="shieldGradient" x1="0%" y1="0%" x2="100%" y2="100%">
      <stop offset="0%" style="stop-color:#1E40AF"/>
      <stop offset="100%" style="stop-color:#7C3AED"/>
    </linearGradient>
  </defs>
  <!-- Main Castle/Quest Symbol (static) -->
  <g>
    <!-- Castle Base -->
    <rect x="18" y="38" width="28" height="20" fill="url(#questGradient)" rx="3"/>
    <!-- Castle Towers -->
    <rect x="15" y="30" width="8" height="28" fill="url(#questGradient)" rx="2"/>
    <rect x="41" y="30" width="8" height="28" fill="url(#questGradient)" rx="2"/>
    <rect x="28" y="25" width="8" height="33" fill="url(#questGradient)" rx="2"/>
    <!-- Castle Flags -->
    <rect x="18" y="18" width="2" height="12" fill="#FCD34D"/>
    <polygon points="20,18 20,25 28,21.5" fill="#F59E0B"/>
    <rect x="44" y="18" width="2" height="12" fill="#FCD34D"/>
    <polygon points="46,18 46,25 54,21.5" fill="#F59E0B"/>
    <!-- Center Crown -->
    <polygon points="32,15 28,20 36,20" fill="#FCD34D"/>
    <circle cx="32" cy="17" r="2" fill="#F59E0B"/>
    <!-- Quest Shield -->
    <ellipse cx="32" cy="45" rx="8" ry="10" fill="url(#shieldGradient)" opacity="0.9"/>
    <!-- Task Checkmarks (static) -->
    <g stroke="#10B981" stroke-width="2" fill="none">
      <path d="M28,43 L30,45 L34,41"/>
      <path d="M28,47 L30,49 L34,45"/>
    </g>
  </g>
  <!-- Experience Points (XP) (static) -->
  <circle cx="52" cy="12" r="6" fill="#FCD34D" opacity="0.9"/>
  <text x="52" y="16" text-anchor="middle" fill="#7C2D12" font-size="8" font-weight="bold">XP</text>
  <!-- Traffic Light Progress Indicators (static) -->
  <g id="trafficLights">
    <circle cx="8" cy="20" r="3" fill="#10B981" opacity="1"/>
    <circle cx="8" cy="30" r="3" fill="#F59E0B" opacity="1"/>
    <circle cx="8" cy="40" r="3" fill="#EF4444" opacity="1"/>
  </g>
</svg>
